<svg xmlns="http://www.w3.org/2000/svg" width="1200" height="640" viewBox="0 0 1200 640">
  <rect width="1200" height="640" fill="#f5f5f0"/>
  <rect x="40" y="40" width="1120" height="560" rx="20" fill="#fffdf8" stroke="#1e3a2f" stroke-width="4"/>
  <text x="80" y="120" font-family="Georgia, serif" font-size="42" fill="#1e3a2f">TinyStories Loss Curve Placeholder</text>
  <text x="80" y="180" font-family="Consolas, monospace" font-size="24" fill="#40534c">Replace with your train / val loss figure.</text>
  <text x="80" y="225" font-family="Consolas, monospace" font-size="24" fill="#40534c">Suggested content: step vs loss, wallclock vs loss, best val loss marker.</text>
  <line x1="120" y1="500" x2="1080" y2="500" stroke="#7b8d86" stroke-width="4"/>
  <line x1="120" y1="500" x2="120" y2="220" stroke="#7b8d86" stroke-width="4"/>
  <path d="M140 440 C260 360, 340 310, 460 280 S700 210, 820 185 S960 165, 1040 155" fill="none" stroke="#d97706" stroke-width="8"/>
  <path d="M140 470 C250 410, 340 350, 460 320 S700 250, 820 220 S960 195, 1040 185" fill="none" stroke="#0f766e" stroke-width="8"/>
  <circle cx="1040" cy="185" r="10" fill="#0f766e"/>
  <text x="860" y="120" font-family="Consolas, monospace" font-size="24" fill="#0f766e">val loss</text>
  <text x="860" y="155" font-family="Consolas, monospace" font-size="24" fill="#d97706">train loss</text>
</svg>
